<svg viewBox="0 0 800 600" xmlns="http://www.w3.org/2000/svg">
  <!-- 背景 -->
  <rect width="800" height="600" fill="#1a1a1a"/>
  
  <!-- タイトル -->
  <text x="400" y="40" text-anchor="middle" fill="#00d4ff" font-size="28" font-weight="bold">MCP と A2A の関係</text>
  
  <!-- ユーザー -->
  <g transform="translate(400, 100)">
    <circle cx="0" cy="0" r="30" fill="#4a5568" stroke="#00d4ff" stroke-width="2"/>
    <text x="0" y="5" text-anchor="middle" fill="white" font-size="14">ユーザー</text>
  </g>
  
  <!-- エージェント1（中央） -->
  <g transform="translate(400, 250)">
    <rect x="-80" y="-40" width="160" height="80" rx="10" fill="#2d3748" stroke="#00d4ff" stroke-width="2"/>
    <text x="0" y="-10" text-anchor="middle" fill="white" font-size="16" font-weight="bold">AIエージェント</text>
    <text x="0" y="10" text-anchor="middle" fill="#a0aec0" font-size="12">（旅行プランナー）</text>
  </g>
  
  <!-- エージェント2（左） -->
  <g transform="translate(200, 400)">
    <rect x="-70" y="-35" width="140" height="70" rx="10" fill="#2d3748" stroke="#00d4ff" stroke-width="2"/>
    <text x="0" y="-5" text-anchor="middle" fill="white" font-size="14" font-weight="bold">AIエージェント</text>
    <text x="0" y="15" text-anchor="middle" fill="#a0aec0" font-size="11">（天気予報）</text>
  </g>
  
  <!-- エージェント3（右） -->
  <g transform="translate(600, 400)">
    <rect x="-70" y="-35" width="140" height="70" rx="10" fill="#2d3748" stroke="#00d4ff" stroke-width="2"/>
    <text x="0" y="-5" text-anchor="middle" fill="white" font-size="14" font-weight="bold">AIエージェント</text>
    <text x="0" y="15" text-anchor="middle" fill="#a0aec0" font-size="11">（ホテル予約）</text>
  </g>
  
  <!-- ツール/データソース（左下） -->
  <g transform="translate(100, 500)">
    <rect x="-50" y="-25" width="100" height="50" rx="5" fill="#4a5568" stroke="#00d4ff" stroke-width="1"/>
    <text x="0" y="0" text-anchor="middle" fill="white" font-size="12">気象データ</text>
    <text x="0" y="15" text-anchor="middle" fill="#a0aec0" font-size="10">API</text>
  </g>
  
  <!-- ツール/データソース（右下） -->
  <g transform="translate(700, 500)">
    <rect x="-50" y="-25" width="100" height="50" rx="5" fill="#4a5568" stroke="#00d4ff" stroke-width="1"/>
    <text x="0" y="0" text-anchor="middle" fill="white" font-size="12">予約システム</text>
    <text x="0" y="15" text-anchor="middle" fill="#a0aec0" font-size="10">データベース</text>
  </g>
  
  <!-- 矢印：ユーザー → エージェント1 -->
  <line x1="400" y1="130" x2="400" y2="210" stroke="#00d4ff" stroke-width="2" marker-end="url(#arrowhead)"/>
  
  <!-- A2A通信（エージェント1 → エージェント2） -->
  <path d="M 320 250 Q 260 325 200 365" fill="none" stroke="#ff6b6b" stroke-width="3" stroke-dasharray="5,5" marker-end="url(#arrowhead-a2a)"/>
  <text x="240" y="310" fill="#ff6b6b" font-size="14" font-weight="bold">A2A</text>
  
  <!-- A2A通信（エージェント1 → エージェント3） -->
  <path d="M 480 250 Q 540 325 600 365" fill="none" stroke="#ff6b6b" stroke-width="3" stroke-dasharray="5,5" marker-end="url(#arrowhead-a2a)"/>
  <text x="540" y="310" fill="#ff6b6b" font-size="14" font-weight="bold">A2A</text>
  
  <!-- MCP通信（エージェント2 → ツール） -->
  <line x1="170" y1="435" x2="130" y2="475" stroke="#4ecdc4" stroke-width="2" marker-end="url(#arrowhead-mcp)"/>
  <text x="120" y="460" fill="#4ecdc4" font-size="12" font-weight="bold">MCP</text>
  
  <!-- MCP通信（エージェント3 → ツール） -->
  <line x1="630" y1="435" x2="670" y2="475" stroke="#4ecdc4" stroke-width="2" marker-end="url(#arrowhead-mcp)"/>
  <text x="670" y="460" fill="#4ecdc4" font-size="12" font-weight="bold">MCP</text>
  

  
  <!-- 矢印の定義 -->
  <defs>
    <marker id="arrowhead" markerWidth="10" markerHeight="10" refX="9" refY="3" orient="auto">
      <polygon points="0 0, 10 3, 0 6" fill="#00d4ff"/>
    </marker>
    <marker id="arrowhead-a2a" markerWidth="10" markerHeight="10" refX="9" refY="3" orient="auto">
      <polygon points="0 0, 10 3, 0 6" fill="#ff6b6b"/>
    </marker>
    <marker id="arrowhead-mcp" markerWidth="10" markerHeight="10" refX="9" refY="3" orient="auto">
      <polygon points="0 0, 10 3, 0 6" fill="#4ecdc4"/>
    </marker>
  </defs>
  
  <!-- 説明テキスト -->
  <text x="400" y="550" text-anchor="middle" fill="#a0aec0" font-size="16">
    MCPでツールを使い、A2Aでエージェント同士が協調
  </text>
</svg>